<?xml version="1.0" encoding="UTF-8" standalone="no"?>
<!-- Created with Inkscape (http://www.inkscape.org/) -->

<svg
   version="1.1"
   id="svg1"
   width="119.81426"
   height="130.91661"
   viewBox="0 0 119.81426 130.91661"
   xmlns="http://www.w3.org/2000/svg"
   xmlns:svg="http://www.w3.org/2000/svg">
  <defs
     id="defs1">
    <clipPath
       clipPathUnits="userSpaceOnUse"
       id="clipPath37">
      <rect
         style="opacity:0.87;fill:currentColor;stroke:currentColor;stroke-width:5.28378;stroke-linecap:round;stroke-linejoin:round;stroke-miterlimit:4.6;paint-order:stroke fill markers"
         id="rect37"
         width="89.974297"
         height="104.88432"
         x="-19.651602"
         y="-85.6744"
         transform="scale(1,-1)" />
    </clipPath>
    <clipPath
       clipPathUnits="userSpaceOnUse"
       id="clipPath38">
      <rect
         style="opacity:0.87;fill:currentColor;stroke:currentColor;stroke-width:5.28378;stroke-linecap:round;stroke-linejoin:round;stroke-miterlimit:4.6;paint-order:stroke fill markers"
         id="rect38"
         width="89.974297"
         height="104.88432"
         x="11.105399"
         y="-112.59641"
         transform="scale(1,-1)" />
    </clipPath>
    <clipPath
       clipPathUnits="userSpaceOnUse"
       id="clipPath39">
      <rect
         style="opacity:0.87;fill:currentColor;stroke:currentColor;stroke-width:5.28378;stroke-linecap:round;stroke-linejoin:round;stroke-miterlimit:4.6;paint-order:stroke fill markers"
         id="rect39"
         width="89.974297"
         height="104.88432"
         x="-63.133301"
         y="-98.158203"
         transform="scale(1,-1)" />
    </clipPath>
    <clipPath
       clipPathUnits="userSpaceOnUse"
       id="clipPath40">
      <rect
         style="opacity:0.87;fill:currentColor;stroke:currentColor;stroke-width:5.28378;stroke-linecap:round;stroke-linejoin:round;stroke-miterlimit:4.6;paint-order:stroke fill markers"
         id="rect40"
         width="89.974297"
         height="104.88432"
         x="-14.822401"
         y="-87.425102"
         transform="scale(1,-1)" />
    </clipPath>
    <clipPath
       clipPathUnits="userSpaceOnUse"
       id="clipPath41">
      <rect
         style="opacity:0.87;fill:currentColor;stroke:currentColor;stroke-width:5.28378;stroke-linecap:round;stroke-linejoin:round;stroke-miterlimit:4.6;paint-order:stroke fill markers"
         id="rect41"
         width="89.974297"
         height="104.88432"
         x="-81.050705"
         y="-84.647903"
         transform="scale(1,-1)" />
    </clipPath>
    <clipPath
       clipPathUnits="userSpaceOnUse"
       id="clipPath42">
      <rect
         style="opacity:0.87;fill:currentColor;stroke:currentColor;stroke-width:5.28378;stroke-linecap:round;stroke-linejoin:round;stroke-miterlimit:4.6;paint-order:stroke fill markers"
         id="rect42"
         width="89.974297"
         height="104.88432"
         x="-27.113102"
         y="-88.465904"
         transform="scale(1,-1)" />
    </clipPath>
    <clipPath
       clipPathUnits="userSpaceOnUse"
       id="clipPath43">
      <rect
         style="opacity:0.87;fill:currentColor;stroke:currentColor;stroke-width:5.28378;stroke-linecap:round;stroke-linejoin:round;stroke-miterlimit:4.6;paint-order:stroke fill markers"
         id="rect43"
         width="89.974297"
         height="104.88432"
         x="-52.341202"
         y="-98.172203"
         transform="scale(1,-1)" />
    </clipPath>
    <clipPath
       clipPathUnits="userSpaceOnUse"
       id="clipPath44">
      <rect
         style="opacity:0.87;fill:currentColor;stroke:currentColor;stroke-width:5.28378;stroke-linecap:round;stroke-linejoin:round;stroke-miterlimit:4.6;paint-order:stroke fill markers"
         id="rect44"
         width="89.974297"
         height="104.88432"
         x="-26.145302"
         y="-89.405602"
         transform="scale(1,-1)" />
    </clipPath>
    <clipPath
       clipPathUnits="userSpaceOnUse"
       id="clipPath45">
      <rect
         style="opacity:0.87;fill:currentColor;stroke:currentColor;stroke-width:5.28378;stroke-linecap:round;stroke-linejoin:round;stroke-miterlimit:4.6;paint-order:stroke fill markers"
         id="rect45"
         width="89.974297"
         height="104.88432"
         x="-74.392502"
         y="-98.1577"
         transform="scale(1,-1)" />
    </clipPath>
    <clipPath
       clipPathUnits="userSpaceOnUse"
       id="clipPath46">
      <rect
         style="opacity:0.87;fill:currentColor;stroke:currentColor;stroke-width:5.28378;stroke-linecap:round;stroke-linejoin:round;stroke-miterlimit:4.6;paint-order:stroke fill markers"
         id="rect46"
         width="89.974297"
         height="104.88432"
         x="-89.026405"
         y="-92.889198"
         transform="scale(1,-1)" />
    </clipPath>
    <clipPath
       clipPathUnits="userSpaceOnUse"
       id="clipPath47">
      <rect
         style="opacity:0.87;fill:currentColor;stroke:currentColor;stroke-width:5.28378;stroke-linecap:round;stroke-linejoin:round;stroke-miterlimit:4.6;paint-order:stroke fill markers"
         id="rect47"
         width="89.974297"
         height="104.88432"
         x="-70.101204"
         y="-92.922798"
         transform="scale(1,-1)" />
    </clipPath>
    <clipPath
       clipPathUnits="userSpaceOnUse"
       id="clipPath48">
      <rect
         style="opacity:0.87;fill:currentColor;stroke:currentColor;stroke-width:5.28378;stroke-linecap:round;stroke-linejoin:round;stroke-miterlimit:4.6;paint-order:stroke fill markers"
         id="rect48"
         width="89.974297"
         height="104.88432"
         x="-36.330101"
         y="-93.006401"
         transform="scale(1,-1)" />
    </clipPath>
    <clipPath
       clipPathUnits="userSpaceOnUse"
       id="clipPath49">
      <rect
         style="opacity:0.87;fill:currentColor;stroke:currentColor;stroke-width:5.28378;stroke-linecap:round;stroke-linejoin:round;stroke-miterlimit:4.6;paint-order:stroke fill markers"
         id="rect49"
         width="89.974297"
         height="104.88432"
         x="-58.998604"
         y="-92.923805"
         transform="scale(1,-1)" />
    </clipPath>
    <clipPath
       clipPathUnits="userSpaceOnUse"
       id="clipPath50">
      <rect
         style="opacity:0.87;fill:currentColor;stroke:currentColor;stroke-width:5.28378;stroke-linecap:round;stroke-linejoin:round;stroke-miterlimit:4.6;paint-order:stroke fill markers"
         id="rect50"
         width="89.974297"
         height="104.88432"
         x="-6.0519013"
         y="-84.007103"
         transform="scale(1,-1)" />
    </clipPath>
    <clipPath
       clipPathUnits="userSpaceOnUse"
       id="clipPath51">
      <rect
         style="opacity:0.87;fill:currentColor;stroke:currentColor;stroke-width:5.28378;stroke-linecap:round;stroke-linejoin:round;stroke-miterlimit:4.6;paint-order:stroke fill markers"
         id="rect51"
         width="89.974297"
         height="104.88432"
         x="-7.640801"
         y="-81.067001"
         transform="scale(1,-1)" />
    </clipPath>
    <clipPath
       clipPathUnits="userSpaceOnUse"
       id="clipPath52">
      <rect
         style="opacity:0.87;fill:currentColor;stroke:currentColor;stroke-width:5.28378;stroke-linecap:round;stroke-linejoin:round;stroke-miterlimit:4.6;paint-order:stroke fill markers"
         id="rect52"
         width="89.974297"
         height="104.88432"
         x="-44.810703"
         y="-82.469597"
         transform="scale(1,-1)" />
    </clipPath>
    <clipPath
       clipPathUnits="userSpaceOnUse"
       id="clipPath53">
      <rect
         style="opacity:0.87;fill:currentColor;stroke:currentColor;stroke-width:5.28378;stroke-linecap:round;stroke-linejoin:round;stroke-miterlimit:4.6;paint-order:stroke fill markers"
         id="rect53"
         width="89.974297"
         height="104.88432"
         x="-83.455109"
         y="-67.126099"
         transform="scale(1,-1)" />
    </clipPath>
    <clipPath
       clipPathUnits="userSpaceOnUse"
       id="clipPath54">
      <rect
         style="opacity:0.87;fill:currentColor;stroke:currentColor;stroke-width:5.28378;stroke-linecap:round;stroke-linejoin:round;stroke-miterlimit:4.6;paint-order:stroke fill markers"
         id="rect54"
         width="89.974297"
         height="104.88432"
         x="-41.324303"
         y="-36.757301"
         transform="scale(1,-1)" />
    </clipPath>
  </defs>
  <g
     id="layer-MC0"
     transform="translate(-14.958657,-10.214235)">
    <path
       id="path1"
       d="M 0,0 C 1.167,-0.407 1.248,-1.293 0.812,-2.505 0.65,-2.958 0.868,-3.824 1.229,-4.135 2.094,-4.882 2.402,-5.768 2.557,-6.831 2.7,-7.805 3.638,-8.811 2.307,-9.647 2.284,-9.662 2.274,-9.724 2.281,-9.759 c 0.319,-1.488 0.64,-2.975 0.96,-4.462 0.143,-0.029 0.285,-0.059 0.427,-0.088 0.095,0.175 0.243,0.34 0.277,0.526 0.298,1.676 0.599,3.351 0.853,5.034 0.146,0.968 0.108,1.973 0.333,2.918 0.284,1.189 1.022,2.322 1.074,3.5 C 6.27,-0.882 5.837,0.59 5.605,2.049 5.424,3.181 5.232,4.311 5.025,5.438 4.817,6.57 4.737,7.757 4.324,8.812 3.772,10.221 2.408,11.305 2.653,13.044 2.666,13.135 2.547,13.249 2.481,13.346 1.912,14.174 1.34,15 0.752,15.852 -0.506,14.177 0.308,12.555 0.775,10.938 h 1.589 c 0.027,-0.11 0.054,-0.22 0.08,-0.33 C 1.85,10.345 1.233,10.124 0.668,9.808 -0.085,9.387 -0.696,8.911 0.155,7.959 0.441,7.639 0.556,7.094 0.592,6.64 0.656,5.822 0.243,4.933 1.143,4.276 1.286,4.171 1.216,3.659 1.127,3.37 0.794,2.286 0.412,1.216 0,0 m 8.572,-3.834 c 0.954,-0.784 0.931,-1.955 0.582,-3.231 -0.421,-1.536 -0.774,-3.09 -1.152,-4.638 -0.047,-0.192 -0.095,-0.391 -0.096,-0.588 -0.008,-1.319 -0.004,-2.638 -0.004,-4.27 0.757,0.941 1.282,1.618 1.836,2.271 0.222,0.26 0.468,0.57 0.769,0.681 1.198,0.442 1.716,1.387 1.945,2.53 0.211,1.053 0.366,2.12 0.496,3.187 0.189,1.566 1.347,2.538 2.871,2.275 0.721,-0.125 1.097,0.113 1.418,0.742 0.905,1.775 1.188,1.859 2.971,1.141 0.48,-0.193 0.987,-0.317 1.463,-0.518 0.362,-0.152 0.871,-0.291 1.011,-0.582 1.047,-2.164 2.872,-4.056 2.151,-6.842 -0.255,-0.985 0.015,-2.113 0.088,-3.173 0.03,-0.432 0.329,-0.891 0.241,-1.278 -0.716,-3.134 0.656,-6.142 0.527,-9.246 -0.032,-0.778 0.545,-1.575 0.814,-2.373 0.365,-1.081 0.775,-2.156 1.001,-3.267 0.058,-0.282 -0.436,-0.82 -0.798,-1.016 -0.805,-0.437 -1.363,-0.928 -1.282,-1.938 0.061,-0.767 -0.398,-0.975 -1.079,-0.821 -1.328,0.301 -2.096,1.169 -2.257,2.479 -0.286,2.335 -0.489,4.68 -0.72,7.022 -0.443,4.484 -0.828,8.975 -1.34,13.452 -0.352,3.074 -1.929,3.781 -4.703,2.16 0.129,-0.297 0.264,-0.605 0.402,-0.922 -1.218,-1.649 -2.457,-3.307 -3.668,-4.984 -0.289,-0.4 -0.561,-0.842 -0.712,-1.307 -0.436,-1.351 -0.804,-2.725 -1.206,-4.088 -0.212,-0.721 -0.55,-1.425 -0.635,-2.16 -0.257,-2.215 -0.588,-4.444 -0.564,-6.664 0.02,-1.853 -0.614,-3.053 -2.28,-3.734 -1.981,0.569 -3.119,1.97 -3.628,3.968 -0.106,0.416 -0.321,0.825 -0.568,1.181 -0.423,0.61 -0.719,1.118 0.096,1.695 0.187,0.133 0.208,0.793 0.047,1.043 -0.151,0.233 -0.742,0.435 -0.971,0.319 -0.733,-0.372 -1.408,-0.871 -2.068,-1.37 -0.847,-0.64 -1.586,-1.456 -2.499,-1.969 -2.223,-1.249 -4.599,-2.238 -6.77,-3.566 -3.747,-2.293 -7.741,-2.61 -11.856,-1.662 -4.725,1.088 -8.008,4.178 -10.34,8.287 -0.397,0.698 -0.178,1.748 -0.232,2.637 -0.019,0.31 0.132,0.76 -0.024,0.911 -1.035,1.011 -1.278,2.356 -1.598,3.649 -0.216,0.871 -0.33,1.791 -0.322,2.687 0.018,1.989 0.118,3.977 0.238,5.963 0.027,0.451 0.241,0.901 0.416,1.333 0.745,1.84 1.47,3.689 2.288,5.497 0.218,0.482 0.663,1.008 1.133,1.205 1.681,0.704 3.121,1.656 4.444,2.944 0.72,0.701 1.941,1.018 2.991,1.22 2.023,0.388 4.087,0.565 6.133,0.841 2.158,0.291 4.118,-0.156 5.86,-1.499 1.074,-0.828 2.141,-1.671 3.259,-2.436 1.25,-0.857 1.294,-2.105 1.246,-3.403 -0.023,-0.651 -0.388,-0.945 -1.032,-0.808 -1.476,0.313 -3.008,0.486 -4.407,1.008 -1.839,0.686 -3.539,0.737 -5.313,-0.119 -1.255,-0.605 -2.556,-1.121 -3.864,-1.604 -2.211,-0.819 -3.765,-2.343 -4.887,-4.365 -2.167,-3.909 -2.566,-8.085 -1.832,-12.415 0.126,-0.746 0.266,-1.364 -0.526,-1.87 -0.581,-0.371 -0.279,-0.808 0.16,-1.143 1.235,-0.943 2.416,-1.966 3.711,-2.817 2.178,-1.43 4.672,-1.393 7.152,-1.301 0.193,0.008 0.427,0.198 0.567,0.136 1.645,-0.731 2.9,0.252 4.257,0.89 0.85,0.399 1.94,0.286 2.456,1.374 0.11,0.233 0.724,0.331 1.099,0.317 1.158,-0.041 1.866,0.603 2.665,1.338 1.279,1.178 2.667,2.273 4.14,3.194 1.497,0.937 2.788,2.887 2.566,4.65 -0.187,1.484 -0.546,2.946 -0.833,4.417 -0.046,0.234 -0.146,0.46 -0.169,0.696 -0.185,1.889 -0.376,3.777 -0.525,5.669 -0.092,1.162 -0.024,2.342 -0.19,3.491 -0.162,1.122 -0.723,2.21 -0.75,3.321 -0.026,1.044 0.368,2.115 0.703,3.133 0.054,0.163 0.766,0.111 1.228,0.164 -0.825,0.775 -1.628,1.522 -2.419,2.281 -0.103,0.099 -0.216,0.275 -0.2,0.398 0.306,2.25 -1.013,4.42 -0.236,6.739 0.237,0.708 -0.147,1.711 -0.456,2.496 -0.511,1.295 -0.927,2.531 -0.38,3.928 0.122,0.31 -0.085,0.748 -0.142,1.127 -0.162,1.071 -0.338,2.14 -0.483,3.214 -0.141,1.043 -0.027,2.187 -0.428,3.112 -0.608,1.402 -0.785,2.74 -0.395,4.18 0.262,0.963 0.325,1.815 -0.502,2.629 -0.38,0.373 -0.526,1.07 -0.604,1.644 -0.116,0.845 0.34,1.366 1.216,1.436 1.272,0.101 2.34,-0.172 3.061,-1.394 0.482,-0.818 1.296,-1.456 1.703,-2.299 C 0.588,31.67 0.918,30.442 1.259,29.24 1.57,28.143 1.631,26.958 2.053,25.913 4.729,19.293 7.249,12.62 8.447,5.551 8.885,2.965 8.943,0.311 9.109,-2.316 9.136,-2.732 8.818,-3.17 8.572,-3.834"
       style="fill:currentColor;fill-opacity:1;fill-rule:nonzero;stroke:none"
       transform="matrix(1.3333333,0,0,-1.3333333,69.906267,58.8812)"
       clip-path="url(#clipPath54)" />
    <path
       id="path3"
       d="m 0,0 c -0.34,-0.919 -0.63,-1.862 -1.039,-2.749 -0.263,-0.571 -0.707,-1.057 -1.06,-1.587 -1.066,-1.601 -1.548,-1.585 -2.685,0.051 -0.383,0.552 -0.852,1.044 -1.239,1.594 -0.163,0.231 -0.323,0.548 -0.302,0.811 0.094,1.148 0.239,2.294 0.395,3.436 0.197,1.451 0.648,1.851 2.089,1.922 C -1.806,3.577 -0.177,2.057 0,0"
       style="fill:currentColor;fill-opacity:1;fill-rule:nonzero;stroke:none"
       transform="matrix(1.3333333,0,0,-1.3333333,126.08067,99.372933)"
       clip-path="url(#clipPath53)" />
    <path
       id="path5"
       d="M 0,0 H 4.597 C 4.622,-0.4 4.647,-0.774 4.68,-1.297 H 1.382 V -6.881 H 4.423 V -8.238 H 1.392 v -6.138 h 3.2 c 0.031,-0.477 0.056,-0.854 0.085,-1.303 H 0 Z"
       style="fill:currentColor;fill-opacity:1;fill-rule:nonzero;stroke:none"
       transform="matrix(1.3333333,0,0,-1.3333333,74.5548,119.83093)"
       clip-path="url(#clipPath52)" />
    <path
       id="path7"
       d="m 0,0 h 1.096 v -7.078 c 0.164,-0.013 0.259,-0.052 0.314,-0.02 2.418,1.394 3.753,0.665 3.772,-2.086 0.017,-2.591 0.003,-5.183 0.003,-7.87 -0.373,-0.038 -0.704,-0.071 -1.205,-0.122 0,2.308 0.002,4.53 -10e-4,6.751 -10e-4,0.559 0.113,1.164 -0.064,1.662 C 3.741,-8.271 3.279,-7.552 2.916,-7.536 2.413,-7.513 1.739,-7.945 1.411,-8.386 1.119,-8.777 1.131,-9.444 1.125,-9.991 1.098,-12.338 1.113,-14.685 1.113,-17.088 H 0 Z"
       style="fill:currentColor;fill-opacity:1;fill-rule:nonzero;stroke:none"
       transform="matrix(1.3333333,0,0,-1.3333333,24.994933,117.9608)"
       clip-path="url(#clipPath51)" />
    <path
       id="path9"
       d="m 0,0 c -2.601,0.758 -3.88,0.099 -4.161,-2.67 -0.255,-2.511 -0.218,-5.098 0.077,-7.606 0.311,-2.633 1.56,-3.207 4.001,-2.326 0.312,-1.192 0.238,-1.335 -0.873,-1.686 -1.683,-0.532 -3.469,0.468 -4.196,2.449 -0.887,2.415 -0.923,4.942 -0.6,7.444 0.19,1.48 0.575,2.975 1.138,4.355 0.568,1.389 1.948,1.996 3.327,1.831 C 0.045,1.631 0.192,1.426 0,0"
       style="fill:currentColor;fill-opacity:1;fill-rule:nonzero;stroke:none"
       transform="matrix(1.3333333,0,0,-1.3333333,22.8764,121.88093)"
       clip-path="url(#clipPath50)" />
    <path
       id="path11"
       d="M 0,0 C -0.199,1.105 -0.317,2.217 -0.633,3.269 -0.751,3.663 -1.324,4.158 -1.703,4.17 -2.078,4.181 -2.681,3.716 -2.819,3.33 -3.601,1.13 -3.592,-1.128 -2.86,-3.335 c 0.136,-0.41 0.773,-0.873 1.203,-0.898 0.339,-0.02 0.917,0.538 1.035,0.942 C -0.313,-2.236 -0.198,-1.124 0,0 M 1.262,-0.048 C 1.048,-1.289 0.92,-2.518 0.608,-3.698 0.322,-4.778 -0.44,-5.495 -1.631,-5.52 c -1.169,-0.025 -1.98,0.592 -2.383,1.656 -0.969,2.557 -0.964,5.14 0.015,7.69 0.405,1.054 1.223,1.667 2.402,1.621 C -0.459,5.403 0.294,4.728 0.573,3.698 0.901,2.482 1.038,1.215 1.262,-0.048"
       style="fill:currentColor;fill-opacity:1;fill-rule:nonzero;stroke:none"
       transform="matrix(1.3333333,0,0,-1.3333333,93.472,133.76987)"
       clip-path="url(#clipPath49)" />
    <path
       id="path13"
       d="M 0,0 C -0.115,1.121 -0.11,2.174 -0.371,3.156 -0.506,3.666 -1.113,4.049 -1.507,4.49 -1.925,4.076 -2.678,3.681 -2.702,3.245 c -0.12,-2.16 -0.109,-4.334 0.01,-6.495 0.022,-0.404 0.749,-1.075 1.143,-1.07 0.394,0.006 1.004,0.646 1.123,1.11 C -0.153,-2.147 -0.121,-1.023 0,0 M 0.961,5.343 V -5.274 c -0.516,0.11 -0.933,0.2 -1.596,0.342 -1.588,-1.018 -3.13,-0.484 -3.369,1.721 -0.234,2.149 -0.212,4.368 0.04,6.517 0.238,2.025 1.497,2.528 3.3,1.814 0.411,-0.163 0.999,0.124 1.625,0.223"
       style="fill:currentColor;fill-opacity:1;fill-rule:nonzero;stroke:none"
       transform="matrix(1.3333333,0,0,-1.3333333,63.247333,133.88)"
       clip-path="url(#clipPath48)" />
    <path
       id="path15"
       d="M 0,0 C -0.109,1.047 -0.105,2.101 -0.368,3.082 -0.504,3.59 -1.115,3.97 -1.511,4.407 -1.926,3.99 -2.672,3.593 -2.7,3.151 -2.831,1.03 -2.838,-1.108 -2.718,-3.23 c 0.025,-0.44 0.772,-0.839 1.186,-1.258 0.4,0.436 1.02,0.813 1.152,1.318 0.267,1.022 0.269,2.114 0.38,3.17 m 0.967,-5.411 c -0.564,0.156 -0.99,0.274 -1.568,0.434 -1.533,-1.054 -3.105,-0.569 -3.354,1.519 -0.264,2.222 -0.239,4.523 0.02,6.748 0.23,1.98 1.362,2.369 3.33,1.701 0.416,-0.141 0.983,0.161 1.572,0.277 z"
       style="fill:currentColor;fill-opacity:1;fill-rule:nonzero;stroke:none"
       transform="matrix(1.3333333,0,0,-1.3333333,108.27547,133.76853)"
       clip-path="url(#clipPath47)" />
    <path
       id="path17"
       d="M 0,0 C -0.11,1.031 -0.108,2.085 -0.375,3.065 -0.512,3.569 -1.129,3.943 -1.529,4.376 -1.94,3.952 -2.679,3.548 -2.706,3.101 c -0.127,-2.122 -0.13,-4.26 -0.007,-6.381 0.025,-0.435 0.78,-0.827 1.199,-1.239 0.395,0.44 1.009,0.824 1.14,1.332 C -0.11,-2.163 -0.11,-1.072 0,0 M 0.962,5.223 V -5.401 c -0.523,0.116 -0.943,0.21 -1.593,0.354 -1.577,-1.035 -3.133,-0.483 -3.37,1.737 -0.23,2.15 -0.208,4.369 0.048,6.517 0.24,2.015 1.469,2.491 3.309,1.783 0.41,-0.158 0.992,0.131 1.606,0.233"
       style="fill:currentColor;fill-opacity:1;fill-rule:nonzero;stroke:none"
       transform="matrix(1.3333333,0,0,-1.3333333,133.50907,133.72373)"
       clip-path="url(#clipPath46)" />
    <path
       id="path19"
       d="m 0,0 h -1.116 v 10.539 c 0.495,-0.157 0.929,-0.294 1.513,-0.479 0.183,0.094 0.552,0.337 0.957,0.483 C 2.575,10.981 3.665,10.44 3.889,9.169 4.067,8.16 4.053,7.111 4.065,6.079 4.09,4.091 4.072,2.103 4.072,0.025 3.684,-0.005 3.354,-0.031 2.867,-0.068 2.867,1.716 2.868,3.417 2.866,5.119 2.865,6.154 2.969,7.208 2.806,8.219 2.723,8.731 2.149,9.552 1.807,9.547 1.274,9.539 0.63,9.041 0.261,8.572 -0.013,8.222 0.015,7.588 0.01,7.08 -0.013,4.738 0,2.396 0,0"
       style="fill:currentColor;fill-opacity:1;fill-rule:nonzero;stroke:none"
       transform="matrix(1.3333333,0,0,-1.3333333,113.9972,140.7484)"
       clip-path="url(#clipPath45)" />
    <path
       id="path21"
       d="M 0,0 C -0.152,0.03 -0.248,0.02 -0.299,0.064 -0.976,0.631 -1.74,1.17 -2.472,0.306 -3.17,-0.517 -2.884,-1.426 -2.2,-2.174 c 0.482,-0.527 1.045,-0.981 1.531,-1.506 1.125,-1.212 1.317,-2.753 0.525,-4.064 -0.566,-0.937 -1.4,-1.409 -2.501,-1.27 -1.236,0.157 -1.567,0.609 -1.483,1.982 0.19,-0.11 0.358,-0.189 0.505,-0.297 0.655,-0.476 1.35,-0.8 2.051,-0.156 0.71,0.654 0.772,1.532 0.289,2.289 -0.483,0.759 -1.177,1.385 -1.784,2.064 -0.901,1.008 -1.441,2.11 -0.898,3.483 0.388,0.983 1.127,1.53 2.183,1.579 C -0.517,1.988 0.057,1.373 0,0"
       style="fill:currentColor;fill-opacity:1;fill-rule:nonzero;stroke:none"
       transform="matrix(1.3333333,0,0,-1.3333333,49.6676,129.07893)"
       clip-path="url(#clipPath44)" />
    <path
       id="path23"
       d="m 0,0 h -1.088 v 17.084 c 0.312,0.033 0.645,0.068 1.088,0.115 z"
       style="fill:currentColor;fill-opacity:1;fill-rule:nonzero;stroke:none"
       transform="matrix(1.3333333,0,0,-1.3333333,84.595467,140.76773)"
       clip-path="url(#clipPath43)" />
    <path
       id="path25"
       d="M 0,0 0.987,1.02 C 1.074,0.964 1.161,0.909 1.248,0.854 V 3.777 C 1.664,3.817 1.995,3.85 2.461,3.895 V 0.807 C 3.077,0.775 3.575,0.749 4.121,0.72 V -0.397 C 3.591,-0.431 3.125,-0.461 2.515,-0.5 V -9.695 H 1.397 C 1.361,-9.527 1.286,-9.341 1.286,-9.155 1.277,-6.646 1.248,-4.137 1.294,-1.63 1.309,-0.834 1.187,-0.301 0.139,-0.392 0.093,-0.261 0.046,-0.131 0,0"
       style="fill:currentColor;fill-opacity:1;fill-rule:nonzero;stroke:none"
       transform="matrix(1.3333333,0,0,-1.3333333,50.958,127.826)"
       clip-path="url(#clipPath42)" />
    <path
       id="path27"
       d="M 0,0 H 1.213 V -3.006 C 1.827,-3.041 2.326,-3.07 2.886,-3.102 V -4.211 C 2.371,-4.244 1.904,-4.274 1.292,-4.314 v -9.189 H 0.07 v 8.676 c -0.506,0.566 -0.819,0.917 -1.132,1.268 0.289,0.236 0.578,0.472 1.062,0.866 z"
       style="fill:currentColor;fill-opacity:1;fill-rule:nonzero;stroke:none"
       transform="matrix(1.3333333,0,0,-1.3333333,122.8748,122.73533)"
       clip-path="url(#clipPath41)" />
    <path
       id="path29"
       d="m 0,0 c 0.592,-0.378 0.982,-0.627 1.44,-0.92 0.24,0.189 0.685,0.541 1.263,0.997 0.168,-0.916 0.274,-1.423 -0.64,-1.87 -0.5,-0.245 -0.861,-1.213 -0.901,-1.879 -0.118,-1.943 -0.043,-3.897 -0.044,-5.847 0,-0.389 0,-0.778 0,-1.217 H 0 Z"
       style="fill:currentColor;fill-opacity:1;fill-rule:nonzero;stroke:none"
       transform="matrix(1.3333333,0,0,-1.3333333,34.5704,126.43827)"
       clip-path="url(#clipPath40)" />
    <path
       id="path31"
       d="M 0,0 H -1.143 V 10.595 C -0.6,10.342 -0.186,10.15 0.227,9.957 0.178,9.853 0.129,9.75 0.08,9.647 c 0.478,0.356 0.956,0.711 1.587,1.18 V 9.311 C 0.217,9.006 -0.033,7.928 -0.01,6.624 0.028,4.443 0,2.261 0,0"
       style="fill:currentColor;fill-opacity:1;fill-rule:nonzero;stroke:none"
       transform="matrix(1.3333333,0,0,-1.3333333,98.984933,140.74907)"
       clip-path="url(#clipPath39)" />
    <path
       id="path33"
       d="m 31.307,14.427 h -1.124 v 10.365 h 1.124 z"
       style="fill:currentColor;fill-opacity:1;fill-rule:nonzero;stroke:none"
       transform="matrix(1.3333333,0,0,-1.3333333,0,160)"
       clip-path="url(#clipPath38)" />
    <path
       id="path35"
       d="m 0,0 c -0.458,0.621 -0.96,1.012 -0.906,1.3 0.07,0.377 0.58,0.671 0.901,1.001 C 0.284,1.984 0.77,1.687 0.805,1.344 0.838,1.014 0.406,0.636 0,0"
       style="fill:currentColor;fill-opacity:1;fill-rule:nonzero;stroke:none"
       transform="matrix(1.3333333,0,0,-1.3333333,41.009333,124.104)"
       clip-path="url(#clipPath37)" />
  </g>
</svg>
